<svg width="500" height="500" viewBox="0 0 500 500" fill="none" xmlns="http://www.w3.org/2000/svg">
<g clip-path="url(#clip0_31_8)">
<path d="M443.617 500H56.373C25.24 500 0 474.77 0 443.648V56.373C0 25.24 25.241 0 56.373 0H443.617C474.738 0 500 25.241 500 56.373V443.648C500 474.769 474.738 500 443.617 500Z" fill="#EABC00"/>
<path d="M108.175 422.27V173.766H80.664L116.293 77.72H185.302V422.27H108.175ZM407.596 77.719H219.137C217.096 77.719 215.139 78.5297 213.696 79.9728C212.253 81.4159 211.442 83.3732 211.442 85.414V189.557H286.774V142.654H340V184.131L208.728 371.311V421.846H414.414V354.622H304.372L400.417 219.781C403.429 215.561 405.822 211.89 407.637 208.723C409.453 205.566 410.949 202.503 412.156 199.47C413.342 196.478 414.177 193.167 414.621 189.557C415.085 185.947 415.291 181.594 415.291 176.477V85.414C415.292 84.4033 415.093 83.4023 414.707 82.4683C414.32 81.5344 413.754 80.6858 413.039 79.971C412.324 79.2563 411.476 78.6896 410.542 78.3031C409.608 77.9167 408.607 77.7182 407.596 77.719Z" fill="white"/>
</g>
<defs>
<clipPath id="clip0_31_8">
<rect width="500" height="500" fill="white"/>
</clipPath>
</defs>
</svg>
