<svg width="500" height="500" viewBox="0 0 500 500" fill="none" xmlns="http://www.w3.org/2000/svg">
<g clip-path="url(#clip0_149_18)">
<path d="M443.62 500H56.35C25.21 500 0 474.79 0 443.65V56.37C0 25.24 25.21 0 56.35 0H443.62C474.75 0 499.98 25.24 499.98 56.37V443.65C499.98 474.79 474.75 500 443.62 500Z" fill="#D61D28"/>
<path d="M105.917 422.269V173.764H78.397L114.045 77.713H183.02V422.269H105.917ZM416.625 281.105C416.037 276.907 414.985 273.287 413.489 270.285C412.024 267.324 409.946 264.708 407.393 262.611C404.845 260.507 401.606 258.413 397.707 256.309L374.715 245.489L397.707 233.296C404.618 229.088 409.507 224.436 412.365 219.32C415.211 214.214 416.625 206.55 416.625 196.328V85.403C416.625 83.3622 415.814 81.4049 414.371 79.9618C412.928 78.5187 410.971 77.708 408.93 77.708H217.332C213.082 77.708 209.627 81.153 209.627 85.403V196.328C209.627 206.22 211.081 213.832 213.918 219.082C216.775 224.374 221.675 229.088 228.565 233.296L251.567 245.489L228.565 256.309C220.725 260.507 215.568 265.489 213.01 271.172C210.463 276.907 209.183 285.314 209.183 296.454V414.569C209.183 418.819 212.639 422.274 216.889 422.274H409.859C414.098 422.274 417.543 418.818 417.543 414.569V296.454C417.543 290.43 417.233 285.314 416.625 281.105ZM340.873 350.988C340.873 355.238 337.417 358.673 333.178 358.673H293.568C289.33 358.673 285.864 355.238 285.864 350.988V282.034C285.864 277.784 289.33 274.339 293.569 274.339H333.178C337.418 274.339 340.873 277.784 340.873 282.034V350.988ZM340.873 209.078C340.873 213.327 337.417 216.772 333.178 216.772H293.568C289.33 216.772 285.864 213.327 285.864 209.077V148.777C285.864 144.537 289.33 141.092 293.569 141.092H333.178C337.418 141.092 340.873 144.537 340.873 148.777V209.077V209.078Z" fill="white"/>
<rect x="38" y="40" width="424" height="422" fill="#D61D28"/>
<path d="M209 84C209 78.4772 213.477 74 219 74H415C420.523 74 425 78.4772 425 84V278H219C213.477 278 209 273.523 209 268V84Z" fill="white"/>
<path d="M347 239C347 233.477 351.477 229 357 229H415C420.523 229 425 233.477 425 239V423C425 428.523 420.523 433 415 433H357C351.477 433 347 428.523 347 423V239Z" fill="white"/>
<path d="M219 433C213.477 433 209 428.523 209 423L209 365C209 359.477 213.477 355 219 355L403 355C408.523 355 413 359.477 413 365L413 423C413 428.523 408.523 433 403 433L219 433Z" fill="white"/>
<rect x="209" y="318" width="82" height="61" fill="white"/>
<path d="M286 150C286 144.477 290.477 140 296 140H337C342.523 140 347 144.477 347 150V209C347 214.523 342.523 219 337 219H296C290.477 219 286 214.523 286 209V150Z" fill="#D61D28"/>
<path d="M180.5 76H109L71.6692 172.274L71 174H98.5V433.5H180.5V76Z" fill="white"/>
</g>
<defs>
<clipPath id="clip0_149_18">
<rect width="500" height="500" fill="white"/>
</clipPath>
</defs>
</svg>
