<svg width="500" height="500" viewBox="0 0 500 500" fill="none" xmlns="http://www.w3.org/2000/svg">
<g clip-path="url(#clip0_31_5)">
<path d="M443.638 500H56.352C25.252 500 0 474.759 0 443.638V56.362C0 25.242 25.252 0 56.352 0H443.638C474.768 0 500 25.241 500 56.362V443.638C500 474.758 474.769 500 443.638 500Z" fill="#DC7317"/>
<path d="M107.957 422.277V173.783H80.436L116.055 77.7069H185.095V422.277H107.957ZM407.825 195.418H286.972V144.904H413.272V77.7009H211.217V261.261H340.663V357.316H286.085V312.207H211.217V414.565C211.217 418.815 214.673 422.26 218.922 422.26H407.825C409.866 422.26 411.823 421.449 413.266 420.006C414.709 418.563 415.52 416.606 415.52 414.565V203.114C415.52 202.103 415.321 201.103 414.935 200.169C414.548 199.235 413.981 198.387 413.267 197.672C412.552 196.957 411.704 196.391 410.77 196.004C409.836 195.617 408.836 195.418 407.825 195.418Z" fill="white"/>
</g>
<defs>
<clipPath id="clip0_31_5">
<rect width="500" height="500" fill="white"/>
</clipPath>
</defs>
</svg>
