<svg width="500" height="500" viewBox="0 0 500 500" fill="none" xmlns="http://www.w3.org/2000/svg">
<g clip-path="url(#clip0_31_11)">
<path d="M443.642 500H56.38C25.256 500 0 474.764 0 443.632V56.368C0 25.235 25.256 0 56.379 0H443.642C474.775 0 500 25.235 500 56.368V443.632C500 474.764 474.775 500 443.642 500Z" fill="#00964B"/>
<path d="M144.95 378.216L138.886 339.893L94.52 339.903L88.456 378.195L31.286 378.215V377.528L85.424 121.328H147.951L202.089 377.548L202.109 378.216H144.95ZM116.693 204.026L102.564 291.465H130.811L116.693 204.026ZM212.167 378.213V121.316H269.337V326.763H336.583V378.213H212.167ZM348.693 378.199V121.312L405.863 121.322L405.833 326.769H473.11V378.23L348.693 378.199Z" fill="white"/>
</g>
<defs>
<clipPath id="clip0_31_11">
<rect width="500" height="500" fill="white"/>
</clipPath>
</defs>
</svg>
